<svg width="14" height="14" viewBox="0 0 14 14" fill="none" xmlns="http://www.w3.org/2000/svg">
<path d="M5.30252 5.25C5.43966 4.86014 5.71036 4.5314 6.06666 4.322C6.42296 4.11259 6.84188 4.03605 7.24921 4.10592C7.65654 4.17578 8.026 4.38756 8.29215 4.70373C8.5583 5.01989 8.70397 5.42006 8.70335 5.83333C8.70335 7 6.95335 7.58333 6.95335 7.58333M7.00002 9.91667H7.00585M12.8334 7C12.8334 10.2217 10.2217 12.8333 7.00002 12.8333C3.77836 12.8333 1.16669 10.2217 1.16669 7C1.16669 3.77834 3.77836 1.16667 7.00002 1.16667C10.2217 1.16667 12.8334 3.77834 12.8334 7Z" stroke="#667085" stroke-width="2" stroke-linecap="round" stroke-linejoin="round"/>
</svg>
